# xmcd CD database file generated by Grip 3.0.5
# 
# Track frame offsets:
#       150
#       28047
#       43290
#       64630
#       79017
#       102042
#       112772
#       134897
#       151882
#       169047
#       199042
#       211992
# 
# Disc length: 3124 seconds
# 
# Revision: 2
# Processed by: cddbd v1.4PL0 Copyright (c) Steve Scherf et al.
# Submitted via: Grip 3.0.5
# 
DISCID=9d0c320c
DTITLE=Jimi Hendrix - Best of - The Authentic PPX Studio Recordings - CD 2
DYEAR=1900
DGENRE=Psychedelic Rock
TTITLE0=Drivin' south (instr.)
TTITLE1=Ain't that peculiar
TTITLE2=I've got a sweet little angel
TTITLE3=Bright light, big city
TTITLE4=California night (live)
TTITLE5=Left alone (live)
TTITLE6=I'm a man (live)
TTITLE7=On the killing floor (live)
TTITLE8=Nobody loves me (live)
TTITLE9=Torture me honey (studio, instr.)
TTITLE10=Sleepy fate (studio, instr.)
TTITLE11=Satisfaction (live)
EXTD=ID3G: 93
EXTT0=
EXTT1=
EXTT2=
EXTT3=
EXTT4=
EXTT5=
EXTT6=
EXTT7=
EXTT8=
EXTT9=
EXTT10=
EXTT11=
PLAYORDER=
